<svg width="273" height="33" viewBox="0 0 273 33" fill="none" xmlns="http://www.w3.org/2000/svg">
<path d="M258.961 21.584C258.961 20.4 259.473 20.176 259.985 20.176C260.689 20.176 260.977 20.752 261.841 21.872C263.025 23.44 264.305 24.24 265.649 24.24C267.505 24.24 268.593 23.216 268.593 22.032C268.593 21.264 268.209 20.528 266.833 19.984C265.201 19.344 262.545 18.896 260.881 17.456C259.985 16.688 259.537 15.568 259.537 14.384C259.537 12.72 260.465 10.928 262.353 9.87197C263.569 9.19997 265.009 8.94397 266.353 8.94397C268.017 8.94397 269.489 9.32797 270.193 9.77597C271.313 10.448 271.441 11.6 271.441 12.432C271.441 13.296 271.345 14.352 270.449 14.352C269.873 14.352 269.649 14.192 269.297 13.616C268.689 12.656 267.697 10.992 265.681 10.992C264.113 10.992 263.121 11.92 263.121 13.04C263.121 14.096 263.953 14.704 265.553 15.216C267.601 15.888 269.713 16.336 271.089 17.808C271.857 18.608 272.273 19.696 272.273 20.816C272.273 22.32 271.537 23.952 269.873 25.04C268.465 26 266.737 26.352 265.137 26.352C262.865 26.352 260.817 25.648 259.953 24.88C259.281 24.24 258.961 22.928 258.961 21.584Z" fill="#263926"/>
<path d="M256.668 22.416C257.02 22.416 257.244 22.64 257.244 22.992C257.244 23.312 257.084 23.632 256.86 23.952C255.996 25.296 254.236 26.352 252.188 26.352C250.076 26.352 248.732 25.328 248.06 24.144C247.484 23.088 247.324 21.84 247.324 20.208C247.324 17.744 247.58 14.608 247.58 12.304C247.58 12.08 247.484 11.984 247.26 11.984H245.276C245.02 11.984 244.828 11.824 244.828 11.536V10.352C244.828 10.064 244.988 9.93599 245.276 9.87199C246.972 9.55199 247.804 8.91199 248.22 8.11199C248.54 7.47199 248.636 6.70399 248.796 5.90399C248.86 5.58399 249.02 5.45599 249.276 5.45599H251.004C251.26 5.45599 251.42 5.61599 251.42 5.87199V9.03999C251.42 9.74399 251.516 9.87199 252.22 9.87199C253.916 9.87199 254.588 9.64799 255.772 9.64799C256.348 9.64799 256.86 9.67999 256.86 10.256C256.86 10.48 256.764 10.704 256.732 10.992C256.604 11.92 256.188 12.112 255.26 12.112C254.364 12.112 253.5 11.984 251.74 11.984C251.516 11.984 251.388 12.112 251.388 12.336C251.356 13.552 251.324 14.896 251.324 16.176C251.324 18.608 251.42 20.848 251.804 21.904C252.284 23.184 253.276 23.504 254.012 23.504C255.42 23.504 255.996 22.416 256.668 22.416Z" fill="#263926"/>
<path d="M234.949 24.336C237.669 24.336 238.949 21.456 238.949 18.096C238.949 14.544 237.38 11.824 234.788 11.824C232.58 11.824 230.788 13.776 230.788 17.904C230.82 22.032 232.517 24.336 234.949 24.336ZM239.301 9.64797C241.893 11.024 243.012 13.808 243.012 16.752C243.012 21.872 239.78 26.352 235.044 26.352C233.668 26.352 232.293 25.968 231.077 25.328C231.013 25.296 230.981 25.296 230.949 25.296C230.885 25.296 230.82 25.328 230.82 25.456V26.352C230.82 28.4 231.012 29.072 231.204 29.488C231.428 29.968 231.812 30.352 232.292 30.64C232.676 30.864 232.965 31.088 232.965 31.472C232.965 31.952 232.517 32.176 231.909 32.176H225.829C225.221 32.176 224.773 31.952 224.773 31.472C224.773 31.088 225.029 30.896 225.445 30.64C225.925 30.352 226.309 29.968 226.533 29.488C226.725 29.04 226.917 28.368 226.917 26.16V15.024C226.917 13.872 226.917 13.168 226.661 12.656C226.469 12.272 226.084 11.984 225.54 11.792C225.092 11.632 224.645 11.472 224.645 11.024C224.645 10.608 224.901 10.384 225.637 10.224C226.949 9.93597 228.133 9.58397 229.189 9.16797C229.509 9.03997 229.797 8.94397 230.053 8.94397C230.469 8.94397 230.82 9.16797 230.82 9.90397V11.408C230.82 11.6 230.916 11.696 231.012 11.696C231.076 11.696 231.172 11.664 231.268 11.536C232.516 9.96797 234.372 8.94397 236.452 8.94397C237.38 8.94397 238.341 9.13597 239.301 9.64797Z" fill="#263926"/>
<path d="M221.22 4.52803C221.22 5.36003 219.396 7.18403 218.532 7.18403C217.668 7.18403 215.876 5.36003 215.876 4.52803C215.876 3.66403 217.668 1.84003 218.532 1.84003C219.396 1.84003 221.22 3.66403 221.22 4.52803ZM222.02 24.464C222.404 24.72 222.692 24.912 222.692 25.296C222.692 25.776 222.212 26 221.636 26H215.492C214.916 26 214.436 25.776 214.436 25.296C214.436 24.912 214.724 24.688 215.108 24.464C215.62 24.176 216.036 23.792 216.228 23.344C216.452 22.864 216.612 22.16 216.612 19.952V15.024C216.612 13.872 216.612 13.168 216.356 12.688C216.132 12.272 215.812 12.016 215.236 11.792C214.852 11.632 214.372 11.44 214.372 11.024C214.372 10.64 214.596 10.384 215.332 10.224C216.452 10 217.668 9.64803 218.5 9.32803C219.108 9.10403 219.396 8.94403 219.78 8.94403C220.228 8.94403 220.548 9.16803 220.548 9.90403V19.952C220.548 22.16 220.708 22.864 220.932 23.312C221.156 23.76 221.54 24.144 222.02 24.464Z" fill="#263926"/>
<path d="M201.061 15.088C201.061 15.344 201.125 15.408 201.381 15.408H205.829C207.429 15.408 208.197 15.024 208.197 13.84C208.197 12.496 207.077 10.928 204.997 10.928C202.021 10.928 201.061 14.352 201.061 15.088ZM211.205 21.808C211.653 21.808 211.877 22.16 211.877 22.48C211.877 23.152 210.917 24.208 209.829 24.912C208.453 25.808 206.661 26.32 204.869 26.32C201.861 26.32 198.853 24.912 197.541 21.488C197.157 20.432 196.933 19.28 196.933 18.128C196.933 14.928 198.469 11.632 201.573 9.90397C202.725 9.26397 204.037 8.94397 205.349 8.94397C207.013 8.94397 208.613 9.45597 209.861 10.48C211.557 11.888 212.197 13.808 212.197 15.184C212.197 16.624 211.781 17.392 209.573 17.392H201.413C201.157 17.392 201.029 17.52 201.029 17.744C201.029 18.256 201.093 19.92 202.149 21.392C203.237 22.896 204.773 23.44 206.309 23.44C209.285 23.44 210.341 21.808 211.205 21.808Z" fill="#263926"/>
<path d="M194.291 23.344C193.011 25.232 190.611 26.352 187.923 26.352C184.979 26.352 182.035 24.912 180.851 21.52C180.531 20.624 180.371 19.6 180.371 18.544C180.371 15.376 181.843 11.888 185.011 10.064C186.259 9.32797 187.764 8.94397 189.396 8.94397C190.708 8.94397 192.595 9.23197 193.459 10.16C193.971 10.672 194.099 11.568 194.099 12.304C194.099 12.848 194.067 13.264 194.003 13.552C193.875 14.16 193.587 14.448 192.947 14.448C192.563 14.448 192.339 14.256 192.083 13.904C191.827 13.552 191.411 12.72 190.931 12.144C190.355 11.472 189.587 10.96 188.467 10.96C186.003 10.96 184.435 13.424 184.435 16.592C184.435 17.744 184.627 19.216 185.011 20.144C186.195 23.088 188.275 23.568 189.683 23.568C191.155 23.568 192.371 22.8 193.107 22.256C193.459 22 193.715 21.84 193.971 21.84C194.323 21.84 194.611 22.128 194.611 22.48C194.611 22.768 194.483 23.056 194.291 23.344Z" fill="#263926"/>
<path d="M167.093 15.088C167.093 15.344 167.157 15.408 167.413 15.408H171.861C173.461 15.408 174.229 15.024 174.229 13.84C174.229 12.496 173.109 10.928 171.029 10.928C168.053 10.928 167.093 14.352 167.093 15.088ZM177.237 21.808C177.685 21.808 177.909 22.16 177.909 22.48C177.909 23.152 176.949 24.208 175.861 24.912C174.485 25.808 172.693 26.32 170.901 26.32C167.893 26.32 164.885 24.912 163.573 21.488C163.189 20.432 162.965 19.28 162.965 18.128C162.965 14.928 164.501 11.632 167.605 9.90397C168.757 9.26397 170.069 8.94397 171.381 8.94397C173.045 8.94397 174.645 9.45597 175.893 10.48C177.589 11.888 178.229 13.808 178.229 15.184C178.229 16.624 177.813 17.392 175.605 17.392H167.445C167.189 17.392 167.061 17.52 167.061 17.744C167.061 18.256 167.125 19.92 168.181 21.392C169.269 22.896 170.805 23.44 172.341 23.44C175.317 23.44 176.373 21.808 177.237 21.808Z" fill="#263926"/>
<path d="M149.545 13.232C151.881 13.232 154.377 12.272 154.377 9.104C154.377 5.744 151.913 5.296 149.641 5.296H147.977C147.561 5.296 147.401 5.456 147.401 5.80799V12.816C147.401 13.072 147.529 13.232 147.849 13.232H149.545ZM161.289 24.368C161.673 24.624 162.217 24.784 162.217 25.328C162.217 25.84 161.705 26 161.289 26H158.569C157.449 26 156.777 25.712 156.233 24.848C155.721 24.048 154.985 22.096 154.025 19.856C152.937 17.36 151.817 15.856 149.993 15.504C149.609 15.44 149.097 15.408 148.617 15.408C148.297 15.408 147.977 15.408 147.785 15.44C147.529 15.472 147.401 15.6 147.401 15.888V19.952C147.401 22.192 147.561 22.896 147.785 23.344C148.009 23.792 148.393 24.176 148.873 24.464C149.289 24.72 149.545 24.912 149.545 25.296C149.545 25.776 149.097 26 148.489 26H142.057C141.449 26 141.001 25.776 141.001 25.296C141.001 24.912 141.257 24.72 141.673 24.464C142.121 24.176 142.537 23.824 142.761 23.344C142.985 22.864 143.145 22.192 143.145 19.952V7.792C143.145 6.064 143.145 5.35999 142.217 4.78399C141.737 4.46399 141.193 4.36799 141.193 3.824C141.193 3.47199 141.513 3.15199 142.153 3.15199H147.401C148.521 3.15199 149.897 3.12 150.761 3.12C153.065 3.12 155.561 3.31199 157.193 4.65599C158.537 5.744 159.049 7.248 159.049 8.62399C159.049 9.488 158.857 10.288 158.537 10.896C157.609 12.784 155.785 13.744 153.833 14C153.641 14.032 153.545 14.064 153.545 14.192C153.545 14.288 153.609 14.352 153.833 14.384C156.297 14.704 157.289 16.336 158.761 19.824C160.233 23.28 160.617 23.92 161.289 24.368Z" fill="#263926"/>
<path d="M120.343 15.088C120.343 15.344 120.407 15.408 120.663 15.408H125.111C126.711 15.408 127.479 15.024 127.479 13.84C127.479 12.496 126.359 10.928 124.279 10.928C121.303 10.928 120.343 14.352 120.343 15.088ZM130.487 21.808C130.935 21.808 131.159 22.16 131.159 22.48C131.159 23.152 130.199 24.208 129.111 24.912C127.735 25.808 125.943 26.32 124.151 26.32C121.143 26.32 118.135 24.912 116.823 21.488C116.439 20.432 116.215 19.28 116.215 18.128C116.215 14.928 117.751 11.632 120.855 9.90397C122.007 9.26397 123.319 8.94397 124.631 8.94397C126.295 8.94397 127.895 9.45597 129.143 10.48C130.839 11.888 131.479 13.808 131.479 15.184C131.479 16.624 131.063 17.392 128.855 17.392H120.695C120.439 17.392 120.311 17.52 120.311 17.744C120.311 18.256 120.375 19.92 121.431 21.392C122.519 22.896 124.055 23.44 125.591 23.44C128.567 23.44 129.623 21.808 130.487 21.808Z" fill="#263926"/>
<path d="M112.595 4.52803C112.595 5.36003 110.771 7.18403 109.907 7.18403C109.043 7.18403 107.251 5.36003 107.251 4.52803C107.251 3.66403 109.043 1.84003 109.907 1.84003C110.771 1.84003 112.595 3.66403 112.595 4.52803ZM113.395 24.464C113.779 24.72 114.067 24.912 114.067 25.296C114.067 25.776 113.587 26 113.011 26H106.867C106.291 26 105.811 25.776 105.811 25.296C105.811 24.912 106.099 24.688 106.483 24.464C106.995 24.176 107.411 23.792 107.603 23.344C107.827 22.864 107.987 22.16 107.987 19.952V15.024C107.987 13.872 107.987 13.168 107.731 12.688C107.507 12.272 107.187 12.016 106.611 11.792C106.227 11.632 105.747 11.44 105.747 11.024C105.747 10.64 105.971 10.384 106.707 10.224C107.827 10 109.043 9.64803 109.875 9.32803C110.483 9.10403 110.771 8.94403 111.155 8.94403C111.603 8.94403 111.923 9.16803 111.923 9.90403V19.952C111.923 22.16 112.083 22.864 112.307 23.312C112.531 23.76 112.915 24.144 113.395 24.464Z" fill="#263926"/>
<path d="M102.703 24.464C103.087 24.72 103.375 24.912 103.375 25.296C103.375 25.776 102.895 26 102.319 26H96.1745C95.5985 26 95.1185 25.776 95.1185 25.296C95.1185 24.912 95.4065 24.688 95.7905 24.464C96.3025 24.176 96.7185 23.792 96.9105 23.344C97.1345 22.864 97.2945 22.16 97.2945 19.952V8.17601C97.2945 7.02401 97.2945 6.32001 97.0385 5.84001C96.8145 5.42401 96.4945 5.16801 95.9185 4.94401C95.5345 4.78401 95.0545 4.59201 95.0545 4.17601C95.0545 3.79201 95.2785 3.53601 96.0145 3.37601C97.1345 3.15201 98.3505 2.80001 99.1825 2.48001C99.7905 2.25601 100.079 2.09601 100.463 2.09601C100.911 2.09601 101.231 2.32001 101.231 3.05601V19.952C101.231 22.16 101.391 22.864 101.615 23.312C101.839 23.76 102.223 24.144 102.703 24.464Z" fill="#263926"/>
<path d="M92.1713 24.464C92.5553 24.72 92.8433 24.912 92.8433 25.296C92.8433 25.776 92.3633 26 91.7873 26H85.6433C85.0673 26 84.5873 25.776 84.5873 25.296C84.5873 24.912 84.8753 24.688 85.2593 24.464C85.7713 24.176 86.1873 23.792 86.3793 23.344C86.6033 22.864 86.7633 22.16 86.7633 19.952V8.17601C86.7633 7.02401 86.7633 6.32001 86.5073 5.84001C86.2833 5.42401 85.9633 5.16801 85.3873 4.94401C85.0033 4.78401 84.5233 4.59201 84.5233 4.17601C84.5233 3.79201 84.7473 3.53601 85.4833 3.37601C86.6033 3.15201 87.8193 2.80001 88.6513 2.48001C89.2593 2.25601 89.5473 2.09601 89.9313 2.09601C90.3793 2.09601 90.6993 2.32001 90.6993 3.05601V19.952C90.6993 22.16 90.8593 22.864 91.0833 23.312C91.3073 23.76 91.6913 24.144 92.1713 24.464Z" fill="#263926"/>
<path d="M70.48 4.97601C66.576 4.97601 63.856 8.464 63.856 13.744C63.856 19.44 66.608 24.08 71.056 24.08C75.184 24.08 77.648 20.208 77.648 15.344C77.648 9.776 74.96 4.97601 70.48 4.97601ZM82.352 14.48C82.288 21.072 77.424 26.352 70.768 26.352C63.632 26.352 59.184 21.616 59.184 14.768C59.184 8.208 63.92 2.76801 70.768 2.76801C77.936 2.76801 82.352 7.696 82.352 14.48Z" fill="#263926"/>
<path d="M0 14.5865C0 6.53062 6.53061 0 14.5865 0V0C22.6424 0 29.1731 6.53061 29.1731 14.5865V14.5865C29.1731 22.6424 22.6425 29.1731 14.5865 29.1731H0.572022C0.256104 29.1731 0 28.917 0 28.601V14.5865Z" fill="#A1EB97"/>
<path d="M14.5869 14.5865C14.5869 6.53061 21.1175 0 29.1734 0V0C37.2294 0 43.76 6.53061 43.76 14.5865V14.5865C43.76 22.6424 37.2294 29.1731 29.1734 29.1731V29.1731C21.1175 29.1731 14.5869 22.6424 14.5869 14.5865V14.5865Z" fill="#00D639"/>
<path d="M21.8798 1.95215C26.2395 4.47427 29.1727 9.18796 29.1727 14.5869C29.1726 19.9857 26.2394 24.6986 21.8798 27.2207C17.5203 24.6986 14.5869 19.9855 14.5868 14.5869C14.5868 9.18811 17.5202 4.47432 21.8798 1.95215Z" fill="#2CA01C"/>
</svg>

